<svg xmlns="http://www.w3.org/2000/svg" viewBox="0 0 48 48" width="48" height="48">
  <!-- Vector apple — carbohydrate event marker -->
  <path fill="#2e7d32" d="M24 12c2-4.5 6.5-6 8.5-6 .3 3-1.2 6.2-4 8.2-2 1.4-3.7 1.7-4.5 1.8-.3-1.8-.6-2.8 0-4z"/>
  <path fill="#43a047" stroke="#1b5e20" stroke-width="1.5"
        d="M24 18c-1.8 0-3.8-.7-5.6-1.8C14.5 14 11 14.2 11 20c0 8.5 7 16.5 13 20 6-3.5 13-11.5 13-20 0-5.8-3.5-6-7.4-3.8C27.8 17.3 25.8 18 24 18z"/>
  <ellipse cx="19" cy="25" rx="2.2" ry="3.5" fill="#a5d6a7" opacity="0.75"/>
</svg>
